<svg width="32" height="32" viewBox="0 0 40 40" fill="none" xmlns="http://www.w3.org/2000/svg">
  <!-- Fundo com cantos arredondados -->
  <rect width="40" height="40" rx="8" fill="#E8DFFC"/>
  
  <!-- Gota com estrutura molecular -->
  <path d="M20 2C20 2 24 6 24 12C24 18 20 22 20 22C20 22 16 18 16 12C16 6 20 2 20 2Z" fill="#8B5CF6" stroke="#A78BFA" stroke-width="0.5"/>
  
  <!-- Estrutura molecular dentro da gota (4 átomos conectados) -->
  <circle cx="19" cy="10" r="1.5" fill="#8B5CF6"/>
  <circle cx="21" cy="12" r="1.5" fill="#8B5CF6"/>
  <circle cx="17" cy="14" r="1.5" fill="#8B5CF6"/>
  <circle cx="23" cy="16" r="1.5" fill="#8B5CF6"/>
  <line x1="19" y1="10" x2="21" y2="12" stroke="#8B5CF6" stroke-width="0.8"/>
  <line x1="21" y1="12" x2="17" y2="14" stroke="#8B5CF6" stroke-width="0.8"/>
  <line x1="17" y1="14" x2="23" y2="16" stroke="#8B5CF6" stroke-width="0.8"/>
  <line x1="23" y1="16" x2="19" y2="10" stroke="#8B5CF6" stroke-width="0.8"/>
  
  <!-- Frasco central com gargalo estreito -->
  <rect x="16" y="18" width="8" height="12" rx="1" fill="#8B5CF6" stroke="#A78BFA" stroke-width="0.5"/>
  <rect x="17" y="16" width="6" height="3" rx="0.5" fill="#8B5CF6"/>
  <rect x="17" y="20" width="6" height="8" rx="0.5" fill="#8B5CF6"/>
  
  <!-- Símbolo de conexão dentro do frasco (Y invertido) -->
  <circle cx="18" cy="22" r="1" fill="white"/>
  <circle cx="22" cy="24" r="1" fill="white"/>
  <circle cx="20" cy="26" r="1" fill="white"/>
  <line x1="18" y1="22" x2="20" y2="26" stroke="white" stroke-width="0.6"/>
  <line x1="22" y1="24" x2="20" y2="26" stroke="white" stroke-width="0.6"/>
  
  <!-- Folha esquerda -->
  <path d="M12 16C12 16 14 14 16 16C18 18 16 20 16 20C16 20 14 18 12 16Z" fill="#8B5CF6" stroke="#A78BFA" stroke-width="0.5"/>
  <path d="M13 17L15 19" stroke="#A78BFA" stroke-width="0.8"/>
  
  <!-- Folha direita -->
  <path d="M28 16C28 16 26 14 24 16C22 18 24 20 24 20C24 20 26 18 28 16Z" fill="#8B5CF6" stroke="#A78BFA" stroke-width="0.5"/>
  <path d="M27 17L25 19" stroke="#A78BFA" stroke-width="0.8"/>
</svg>
